<svg width="36" height="36" viewBox="0 0 36 36" fill="none" xmlns="http://www.w3.org/2000/svg">
<g clip-path="url(#clip0_3539_6126)">
<rect width="36" height="36" rx="18" fill="#E9E9EE"/>
<path d="M27.0285 13.9095C27.5912 17.4658 27.958 30.6302 23.7887 30.6302C18.3243 33.2636 11.2129 32.0361 11.2129 28.4357C11.2129 24.8351 9.03355 10.85 13.2026 10.85C17.3719 10.85 26.1577 8.40562 27.0285 13.9095Z" fill="#0F3B24"/>
<path d="M24.3805 17.2173C24.3805 17.2173 23.8568 21.4363 20.2486 24.1715C16.6405 26.9066 20.1613 17.8866 20.1613 17.8866L24.3805 17.2173Z" fill="#BCBACB"/>
<path d="M12.5381 17.6709C12.5381 17.6709 13.5824 22.1638 15.9084 23.862C18.2344 25.5602 17.2196 21.7301 17.2196 21.7301L12.5381 17.6709Z" fill="#BCBACB"/>
<path d="M8.96832 28.6914C8.96832 28.6914 7.97074 29.6789 7.58729 31.1451C7.20383 32.6112 6.53414 34.9852 6.30855 35.6269C6.08296 36.2686 1.90918 45.4417 1.90918 45.4417L5.22578 49.5843H11.9343V28.8476L8.96832 28.6914Z" fill="#DEDEE6"/>
<path d="M9.15061 34.4106L4.3823 39.9814C3.1983 42.6089 1.90918 45.442 1.90918 45.442L5.22578 49.5846H11.9343V34.4106H9.15061Z" fill="#0F3B24"/>
<path d="M15.9092 23.8614C16.6208 24.6493 17.4104 25.2122 17.7873 25.1784C18.2074 25.1406 19.9332 24.8294 21.6951 22.8538C21.9202 21.6028 22.3159 20.7247 22.3159 20.7247L15.9092 20.5181C15.9092 20.5181 15.9092 22.0956 15.9092 23.8614Z" fill="#764845"/>
<path d="M13.0732 26.6987C13.0732 26.6987 13.6829 30.9906 14.5481 33.4092C15.4132 35.8278 16.4751 37.2043 16.7111 37.2043C16.9471 37.2043 20.0344 35.356 21.9615 31.8361C23.8886 28.3163 24.2819 26.802 24.2819 26.802C24.2819 26.802 24.4393 26.7232 24.6949 26.8805C24.9505 27.0379 28.1558 28.4144 29.2177 29.0043C29.3411 29.0729 29.4588 29.1406 29.5719 29.2095C29.5719 29.2095 29.9849 32.2291 29.5719 35.5719C29.1588 38.9147 27.4971 48.8646 27.4381 49.3365C27.3791 49.8085 27.0251 50.0444 27.0251 50.0444C27.0251 50.0444 27.4086 53.6134 27.4086 53.9083C27.4086 54.2033 27.2906 54.5278 27.0251 54.5867C26.7597 54.6457 17.1438 56.386 8.20627 53.6724C8.20627 53.6724 8.02929 53.6134 8.07354 53.2594C8.11778 52.9055 8.8552 49.2186 8.8552 49.2186C8.8552 49.2186 7.98552 48.0682 8.06634 47.5668C8.14728 47.0654 8.91419 44.7352 8.91419 44.7352C8.91419 44.7352 8.35375 40.4584 8.35375 38.8951C8.35375 37.3319 9.15016 34.4118 9.15016 34.4118C9.15016 34.4118 8.7962 29.4196 8.81095 29.2095C8.8257 28.9994 8.8552 28.7487 9.09117 28.5717C9.32714 28.3947 13.0732 26.6987 13.0732 26.6987Z" fill="#DEDEE6"/>
<path d="M25.933 27.4536C25.7623 27.9791 25.1752 29.5726 23.5144 32.6061C22.3705 34.6956 20.8963 36.2025 19.8609 37.0984C19.2093 37.6622 18.6645 38.0447 18.3222 38.2663C17.6059 38.7299 17.1844 38.8941 16.7117 38.8941C15.7075 38.8941 15.0471 38.165 14.3643 37.0702C13.9822 36.4574 13.4148 35.4143 12.8821 33.9253C12.1431 31.8595 11.5966 28.6953 11.4004 27.4623" stroke="#0F3B24" stroke-miterlimit="10"/>
<path d="M23.3281 27.4517L25.5918 28.3652" stroke="#0F3B24" stroke-miterlimit="10"/>
<path d="M25.1534 29.3758L22.9292 28.3662" stroke="#0F3B24" stroke-miterlimit="10"/>
<path d="M22.4976 29.2891L24.6844 30.3619" stroke="#0F3B24" stroke-miterlimit="10"/>
<path d="M24.1958 31.3284L22.022 30.208" stroke="#0F3B24" stroke-miterlimit="10"/>
<path d="M21.541 31.127L23.688 32.2848" stroke="#0F3B24" stroke-miterlimit="10"/>
<path d="M23.1376 33.2518L21.0615 31.979" stroke="#0F3B24" stroke-miterlimit="10"/>
<path d="M20.5332 32.772L22.5129 34.1899" stroke="#0F3B24" stroke-miterlimit="10"/>
<path d="M21.8292 35.0797L19.9502 33.5288" stroke="#0F3B24" stroke-miterlimit="10"/>
<path d="M19.3159 34.25L21.0864 35.9206" stroke="#0F3B24" stroke-miterlimit="10"/>
<path d="M20.2925 36.7108L18.6362 34.9277" stroke="#0F3B24" stroke-miterlimit="10"/>
<path d="M17.9146 35.5537L19.4431 37.4479" stroke="#0F3B24" stroke-miterlimit="10"/>
<path d="M18.534 38.1257L17.166 36.1133" stroke="#0F3B24" stroke-miterlimit="10"/>
<path d="M16.693 36.1758L14.7212 37.6078" stroke="#0F3B24" stroke-miterlimit="10"/>
<path d="M14.1025 36.629L16.2198 35.4258" stroke="#0F3B24" stroke-miterlimit="10"/>
<path d="M13.583 35.628L15.7861 34.5845" stroke="#0F3B24" stroke-miterlimit="10"/>
<path d="M13.1367 34.6022L15.4019 33.6963" stroke="#0F3B24" stroke-miterlimit="10"/>
<path d="M12.7539 33.5532L15.069 32.7847" stroke="#0F3B24" stroke-miterlimit="10"/>
<path d="M12.4375 32.4881L14.7885 31.8452" stroke="#0F3B24" stroke-miterlimit="10"/>
<path d="M12.1699 31.4261L14.54 30.8647" stroke="#0F3B24" stroke-miterlimit="10"/>
<path d="M11.9326 30.3646L14.315 29.8628" stroke="#0F3B24" stroke-miterlimit="10"/>
<path d="M11.7222 29.3027L14.1132 28.8486" stroke="#0F3B24" stroke-miterlimit="10"/>
<path d="M11.5288 28.2384L13.9274 27.8257" stroke="#0F3B24" stroke-miterlimit="10"/>
<path d="M24.2825 26.802C24.2825 26.802 23.8891 28.3163 21.962 31.8361C20.0349 35.356 16.9476 37.2043 16.7116 37.2043C16.4756 37.2043 15.4138 35.8278 14.5486 33.4092C13.6834 30.9906 13.0737 26.6987 13.0737 26.6987L15.1611 29.0761L16.4756 30.9608L17.39 31.6982L19.5335 30.6659L23.2108 26.6987L24.2825 26.802Z" fill="#E4ECEF"/>
<path opacity="0.15" d="M23.2108 26.6987L19.5335 30.6659L17.39 31.6982L17.2593 31.5926L16.4756 30.9608L15.1611 29.0761L13.0737 26.6987C13.0737 26.6987 13.6356 30.6521 14.4458 33.1085C14.957 32.5826 15.7812 31.7399 15.9093 31.6392C16.036 31.5397 16.6661 31.6507 17.0624 31.7333C16.6592 32.0292 16.6765 32.0797 16.6998 32.1436C16.7281 32.2595 17.0408 34.3933 17.0481 34.5152C17.0429 34.6192 16.8185 35.8166 16.5679 37.1248C16.6296 37.1768 16.6789 37.2044 16.7116 37.2044C16.7275 37.2044 16.7575 37.1954 16.7982 37.1785C17.0447 35.893 17.2886 34.5927 17.2837 34.5083C17.2782 34.4128 17.0073 32.5186 16.9377 32.1357C17.002 32.0734 17.1811 31.9383 17.3728 31.8023C17.3838 31.8049 17.39 31.8064 17.39 31.8064C17.39 31.8064 18.5719 31.832 18.7651 31.8463C18.9583 31.8606 19.1758 31.9735 19.3178 32.1678C19.3945 32.2728 20.0675 33.0698 20.6704 33.7806C21.1264 33.2027 21.5685 32.5549 21.962 31.8364C23.8891 28.3165 24.2825 26.8022 24.2825 26.8022L23.2108 26.6987Z" fill="#45474B"/>
<path d="M24.2825 26.802C24.2825 26.802 23.8891 28.3163 21.962 31.8361C20.0349 35.356 16.9476 37.2043 16.7116 37.2043C16.4756 37.2043 15.4138 35.8278 14.5486 33.4092C13.6834 30.9906 13.0737 26.6987 13.0737 26.6987" stroke="#0F3B24" stroke-miterlimit="10"/>
<path d="M18.2488 32.8074C18.2701 33.1046 18.0878 33.3457 17.8421 33.3457C17.5965 33.3457 17.3801 33.1047 17.3591 32.8074C17.3379 32.5101 17.5202 32.269 17.7658 32.269C18.0115 32.269 18.2278 32.5101 18.2488 32.8074Z" fill="#F0C436"/>
<path d="M25.114 15.3648C24.7884 16.3311 24.4261 17.0791 24.2362 17.4259C23.9577 18.4642 23.5719 19.3372 23.1271 20.0711C21.2724 23.1304 18.3852 23.7569 17.8838 23.7592C16.8585 23.7628 14.5931 22.1063 13.4841 20.3295C12.375 18.5538 12.4328 15.9759 12.2818 15.5595C11.9089 14.7619 11.2659 12.9485 12.3773 9.42439C13.49 5.90027 18.5067 3.51231 23.1755 6.62114C26.5487 8.86633 25.9588 12.8529 25.114 15.3648Z" fill="#A86C5E"/>
<path d="M14.1846 12.5751C14.1846 12.5751 18.333 10.8029 22.616 12.8406C22.616 12.8406 19.9541 9.32567 18.7844 8.94824C18.7844 8.94824 15.3733 10.613 14.1846 12.5751Z" fill="white"/>
<path opacity="0.67" d="M25.1126 15.3646C24.7869 16.3309 24.4247 17.0789 24.2348 17.4258C23.9563 18.464 23.5705 19.3371 23.1257 20.0709C23.1599 19.4598 23.1682 18.7802 23.1446 18.0275C22.9865 13.0463 18.1372 9.52216 18.1372 9.52216L22.5888 8.43555L25.1126 15.3646Z" fill="#764845"/>
<path d="M22.1412 16.9534L22.2362 17.0554C22.3022 17.1331 22.1602 17.209 22.1322 17.1111L22.0999 16.9755C22.0936 16.952 22.1257 16.9354 22.1412 16.9534Z" fill="#D29691"/>
<path d="M22.2866 16.8157L22.4051 16.8519C22.5047 16.8897 22.4126 17.0274 22.3396 16.9501L22.2606 16.8545C22.2448 16.8368 22.2645 16.8081 22.2866 16.8157Z" fill="#D29691"/>
<path d="M22.3749 16.6479L22.5125 16.6255C22.6143 16.6151 22.5989 16.7727 22.5011 16.7429L22.3703 16.6944C22.3473 16.6867 22.3512 16.6509 22.3749 16.6479Z" fill="#D29691"/>
<path d="M13.4721 16.4939L13.4356 16.6284C13.403 16.7254 13.2658 16.6462 13.3334 16.5695L13.4316 16.4705C13.4481 16.4527 13.4791 16.4711 13.4721 16.4939Z" fill="#D29691"/>
<path d="M13.3118 16.3679L13.2298 16.4609C13.1543 16.5359 13.0669 16.3952 13.1674 16.3607L13.287 16.3282C13.3097 16.3212 13.3277 16.3511 13.3118 16.3679Z" fill="#D29691"/>
<path d="M13.2073 16.2041L13.0752 16.2485C12.9764 16.2752 12.966 16.1171 13.0674 16.1307L13.2043 16.1574C13.2283 16.1613 13.2302 16.1974 13.2073 16.2041Z" fill="#D29691"/>
<path d="M19.9561 16.8089C19.9561 16.8089 19.9868 16.8191 20.0399 16.8361C20.0921 16.8546 20.1698 16.8736 20.2597 16.8997C20.3513 16.9224 20.4573 16.9508 20.5719 16.9707C20.6286 16.9836 20.6886 16.9892 20.7484 16.9987C20.8085 17.0089 20.8701 17.0099 20.9312 17.0162C20.9923 17.0167 21.0536 17.0213 21.1133 17.0178C21.1728 17.0106 21.2333 17.016 21.2891 17.0033C21.345 16.9924 21.4012 16.9902 21.4511 16.9734C21.5011 16.9574 21.5524 16.9517 21.5939 16.932C21.6365 16.9142 21.6772 16.9 21.7133 16.8872C21.7476 16.8708 21.7763 16.854 21.8007 16.8414C21.8499 16.8152 21.8795 16.8013 21.8795 16.8013C21.8795 16.8013 21.8572 16.824 21.815 16.8617C21.7935 16.8798 21.7683 16.9036 21.7375 16.9287C21.7043 16.9502 21.6667 16.9745 21.624 16.9991C21.583 17.0278 21.5318 17.0425 21.4791 17.0651C21.4275 17.089 21.3685 17.1006 21.3087 17.115C21.2484 17.132 21.1845 17.1347 21.1201 17.1421C21.0553 17.1474 20.9897 17.1441 20.9243 17.1448C20.859 17.1365 20.7932 17.1332 20.7303 17.1215C20.6672 17.111 20.6051 17.0974 20.5467 17.0809C20.4286 17.0506 20.323 17.0081 20.2346 16.9692C20.1468 16.9287 20.0775 16.8876 20.0293 16.8586C19.9813 16.8291 19.9561 16.8089 19.9561 16.8089Z" fill="#D29691"/>
<path d="M21.2299 15.3496C20.5253 15.2091 19.7132 15.4655 19.5205 16.4439C19.7846 16.8111 20.433 17.0917 21.0779 17.0993C21.7234 17.1071 22.2294 16.6037 22.198 16.1008C22.0494 15.7649 21.8067 15.4641 21.2299 15.3496Z" fill="white"/>
<path d="M21.9888 16.2823C21.9459 16.7735 21.5195 17.1376 21.0365 17.0958C20.5533 17.0537 20.1963 16.6214 20.2388 16.1303C20.2816 15.6392 20.7078 15.275 21.1908 15.3167C21.6744 15.3587 22.0311 15.791 21.9888 16.2823Z" fill="#764845"/>
<path opacity="0.4" d="M21.2394 16.0311C21.5428 16.104 21.7917 16.2719 21.9486 16.4817C21.9691 16.4181 21.9832 16.3514 21.9895 16.2824C22.0318 15.7911 21.6752 15.3589 21.1915 15.3167C20.7084 15.275 20.2823 15.6392 20.2395 16.1303C20.2374 16.1574 20.2365 16.1838 20.2369 16.21C20.4863 16.0173 20.8589 15.9387 21.2394 16.0311Z" fill="#45474B"/>
<path d="M21.6606 16.2319C21.638 16.4931 21.4112 16.6869 21.1545 16.6645C20.8976 16.6422 20.7079 16.4125 20.7303 16.151C20.7527 15.8901 20.9797 15.6963 21.2364 15.7185C21.4935 15.7409 21.6833 15.9708 21.6606 16.2319Z" fill="#262629"/>
<path d="M20.9413 15.9098C20.9308 16.0289 20.8278 16.1168 20.7111 16.1067C20.5944 16.0965 20.5078 15.9921 20.5185 15.8734C20.5286 15.7543 20.6317 15.6664 20.7484 15.6766C20.865 15.6867 20.9515 15.7913 20.9413 15.9098Z" fill="white"/>
<path d="M19.3179 16.4268C19.4956 16.0495 20.1057 15.3895 21.0848 15.4715C21.9288 15.542 22.15 16.2795 22.1543 16.296C22.1579 16.3126 22.1448 16.2198 22.1501 16.2794C22.1558 16.3392 22.1436 16.4296 22.1436 16.4296C22.1436 16.4296 22.7743 16.4036 23.1241 15.9716C23.1241 15.9716 22.7107 16.0216 22.4445 15.864C22.2496 15.7485 21.8947 15.1922 21.0459 15.1776C20.0752 15.1607 19.4141 15.8107 19.3179 16.4268Z" fill="#262629"/>
<path d="M19.9863 15.333C19.9863 15.333 19.9916 15.3262 20.0019 15.3131C20.0128 15.3004 20.0251 15.2787 20.0478 15.2569C20.0708 15.2363 20.0974 15.2058 20.1327 15.1802C20.1671 15.1525 20.2074 15.1219 20.2552 15.0956C20.3017 15.0654 20.356 15.0428 20.4127 15.0166C20.4716 14.9956 20.5328 14.9684 20.5999 14.9545C20.666 14.9355 20.7355 14.9231 20.8072 14.9127C20.8785 14.9073 20.9519 14.8978 21.0252 14.9011L21.1342 14.9052C21.1709 14.9099 21.2067 14.9144 21.2426 14.9189C21.3145 14.925 21.3823 14.9497 21.4489 14.9637C21.5139 14.9855 21.5765 15.0073 21.6337 15.0329C21.6895 15.0606 21.7429 15.0858 21.7894 15.1143C21.8812 15.1724 21.9523 15.2272 21.9982 15.2704C22.0448 15.3118 22.0702 15.3365 22.0702 15.3365C22.0702 15.3365 22.0381 15.3207 21.9836 15.2909C21.9565 15.2766 21.9256 15.2555 21.8864 15.2381C21.8471 15.2215 21.8027 15.2027 21.7559 15.1803C21.7081 15.1599 21.654 15.144 21.5994 15.1224C21.543 15.1047 21.482 15.091 21.4205 15.0731C21.3572 15.0638 21.2929 15.0472 21.2259 15.0423C21.1926 15.0385 21.1592 15.0349 21.1251 15.0313L21.0235 15.0295C20.9555 15.0253 20.8876 15.0326 20.8206 15.036C20.7537 15.0455 20.6876 15.0497 20.6253 15.064C20.5619 15.0744 20.5025 15.0926 20.4454 15.1062C20.39 15.1264 20.3349 15.1399 20.2883 15.1611C20.2398 15.18 20.1972 15.2003 20.1595 15.2195C20.1199 15.2371 20.092 15.2591 20.0649 15.2746C20.0146 15.3112 19.9863 15.333 19.9863 15.333Z" fill="#764845"/>
<path d="M18.9267 14.1153C18.9267 14.1153 20.1197 13.6515 21.0886 13.7435C22.4172 13.8692 23.1346 14.2963 23.1346 14.2963C23.1346 14.2963 22.7432 13.7867 21.0597 13.5274C20.0882 13.378 19.5064 13.509 19.2381 13.6258C18.9699 13.7423 18.9178 14.0284 18.9267 14.1153Z" fill="#262629"/>
<path d="M15.2061 16.4309C15.2061 16.4309 15.1786 16.4352 15.13 16.4433C15.0823 16.4528 15.0129 16.4587 14.9311 16.4689C14.8489 16.4757 14.7537 16.486 14.6521 16.4862C14.6013 16.4898 14.5488 16.4852 14.496 16.485C14.4429 16.4852 14.3898 16.4765 14.3364 16.4728C14.2839 16.4639 14.2304 16.4587 14.1795 16.4456C14.1296 16.4295 14.0767 16.4249 14.0309 16.404C13.9848 16.3851 13.937 16.3739 13.8965 16.3498C13.8567 16.3271 13.8132 16.3137 13.7807 16.2884C13.7467 16.2652 13.7144 16.2453 13.6853 16.2272C13.6583 16.2064 13.6364 16.1858 13.6174 16.17C13.5793 16.1379 13.5562 16.1201 13.5562 16.1201C13.5562 16.1201 13.5715 16.1449 13.6019 16.1871C13.6174 16.2078 13.6353 16.2343 13.6579 16.2628C13.6832 16.2882 13.7117 16.3173 13.744 16.3476C13.7748 16.3813 13.8164 16.403 13.8578 16.4328C13.8987 16.4634 13.9475 16.4837 13.9972 16.5067C14.0456 16.5321 14.1 16.5447 14.1543 16.5622C14.209 16.5774 14.2658 16.5847 14.3225 16.5953C14.3792 16.5979 14.4361 16.6055 14.4924 16.6043C14.5483 16.6042 14.6032 16.6012 14.6565 16.5948C14.7624 16.5846 14.8597 16.5611 14.9414 16.5381C15.0237 16.5138 15.0896 16.4861 15.1352 16.4665C15.1812 16.4457 15.2061 16.4309 15.2061 16.4309Z" fill="#D29691"/>
<path d="M14.3444 14.8485C14.9716 14.8273 15.6287 15.1977 15.6392 16.1542C15.3546 16.46 14.7536 16.6232 14.1988 16.5283C13.6438 16.4337 13.2883 15.8778 13.3948 15.4065C13.5753 15.1126 13.8311 14.8661 14.3444 14.8485Z" fill="white"/>
<path d="M15.5004 15.7818C15.4594 16.2528 15.0849 16.6056 14.6631 16.5693C14.2421 16.5328 13.9332 16.1209 13.9744 15.6493C14.0152 15.1777 14.3901 14.8251 14.8115 14.8615C15.2331 14.8982 15.5412 15.3101 15.5004 15.7818Z" fill="#764845"/>
<path opacity="0.4" d="M14.8475 15.5455C15.1116 15.614 15.3279 15.7729 15.4626 15.973C15.481 15.9117 15.4941 15.8479 15.4999 15.7814C15.5409 15.3097 15.2326 14.8977 14.811 14.861C14.3896 14.8245 14.0147 15.1772 13.9739 15.6489C13.9714 15.6745 13.9707 15.7001 13.9707 15.7254C14.1902 15.5382 14.5162 15.46 14.8475 15.5455Z" fill="#45474B"/>
<path d="M15.2146 15.7354C15.1926 15.9861 14.9935 16.1738 14.7695 16.1544C14.5456 16.1348 14.3815 15.9157 14.4033 15.6652C14.4251 15.4144 14.6243 15.227 14.8482 15.2465C15.0721 15.2657 15.2362 15.4846 15.2146 15.7354Z" fill="#262629"/>
<path d="M14.587 15.4315C14.5771 15.5454 14.4865 15.6308 14.3847 15.6221C14.2825 15.6129 14.2083 15.5134 14.2182 15.3996C14.2282 15.2856 14.3187 15.2002 14.4205 15.2091C14.5223 15.218 14.5967 15.3176 14.587 15.4315Z" fill="white"/>
<path d="M15.8155 16.1698C15.7222 15.7847 15.3026 15.0638 14.449 14.9867C13.713 14.9203 13.407 15.5837 13.4011 15.5985C13.3949 15.6136 13.4208 15.528 13.407 15.5836C13.3924 15.6391 13.3893 15.7268 13.3893 15.7268C13.3893 15.7268 12.8515 15.6025 12.6196 15.1381C12.6196 15.1381 12.9665 15.2509 13.2201 15.1434C13.4059 15.0651 13.7981 14.5948 14.5296 14.7148C15.3651 14.852 15.83 15.5718 15.8155 16.1698Z" fill="#262629"/>
<path d="M15.4143 15.0294C15.4143 15.0294 15.4111 15.022 15.4045 15.0077C15.397 14.9938 15.3896 14.9716 15.3742 14.9471C15.3574 14.9239 15.3396 14.8909 15.3133 14.8609C15.2878 14.8294 15.2584 14.794 15.2211 14.7617C15.1863 14.7262 15.1436 14.6958 15.0987 14.6621C15.0511 14.633 15.003 14.5977 14.9477 14.5736C14.8943 14.5457 14.8361 14.5228 14.7769 14.502C14.716 14.4854 14.6548 14.4651 14.5914 14.4563L14.4967 14.4429C14.4648 14.4416 14.4331 14.4404 14.4016 14.439C14.3387 14.4331 14.2766 14.446 14.2173 14.4491C14.1579 14.4593 14.1007 14.4702 14.0477 14.4848C13.9954 14.5026 13.9455 14.518 13.9013 14.5372C13.8131 14.5777 13.7435 14.6184 13.6977 14.6522C13.6506 14.6841 13.625 14.7035 13.625 14.7035C13.625 14.7035 13.6554 14.6936 13.7065 14.6736C13.7324 14.6646 13.7621 14.6497 13.7983 14.6396C13.8349 14.6298 13.876 14.6187 13.9194 14.605C13.9637 14.5936 14.0126 14.5869 14.0631 14.5752C14.1145 14.5672 14.1687 14.5643 14.2244 14.5572C14.2802 14.558 14.3379 14.5528 14.3962 14.5584C14.4252 14.5603 14.4549 14.562 14.4843 14.564L14.5722 14.5781C14.631 14.5851 14.6882 14.6029 14.745 14.6167C14.801 14.6357 14.857 14.6506 14.9083 14.674C14.9611 14.6938 15.0093 14.7203 15.0568 14.7422C15.1009 14.7697 15.1456 14.7917 15.1823 14.8193C15.2214 14.8443 15.2545 14.8706 15.2841 14.8946C15.3149 14.9172 15.3353 14.9428 15.3565 14.9618C15.3937 15.0038 15.4143 15.0294 15.4143 15.0294Z" fill="#764845"/>
<path d="M15.9598 13.9245C15.9598 13.9245 15.1613 13.3726 14.3941 13.3576C13.6273 13.3426 13.1694 13.6335 13.1694 13.6335C13.1694 13.6335 13.5531 13.1805 14.3878 13.1308C15.1534 13.0852 15.6015 13.263 15.792 13.4137C15.9825 13.5646 15.9795 13.8433 15.9598 13.9245Z" fill="#262629"/>
<path opacity="0.67" d="M16.1343 20.974C16.1343 20.974 16.2744 20.9967 16.3462 21.1104C16.4183 21.2234 16.8027 21.6753 17.3276 21.6801C18.1134 21.6876 18.5137 21.3994 18.7177 21.2593C18.9217 21.1194 19.1559 21.0228 19.2961 21.0126C18.9936 20.9108 18.5893 20.6816 18.3571 20.5611C18.1253 20.4405 17.882 20.2764 17.7225 20.247C17.5629 20.2179 17.2417 20.3886 17.2417 20.3886C17.2417 20.3886 17.0074 20.2361 16.8532 20.2781C16.6988 20.3201 16.2179 20.9276 16.1343 20.974Z" fill="#764845"/>
<path d="M15.9134 20.889C15.8896 20.9043 15.9722 20.9884 16.0195 20.9966C16.0667 21.0045 16.7589 20.8773 16.7866 20.8777C16.8141 20.8778 17.0976 20.9516 17.2118 20.9489C17.3267 20.9462 17.73 20.871 17.7815 20.8753C17.8326 20.8798 19.1379 21.0236 19.292 21.0286C19.446 21.0336 19.6679 20.9489 19.7433 20.9022C19.8185 20.8558 19.8468 20.8086 19.8112 20.7924C19.7759 20.7765 19.721 20.76 19.6854 20.7675C19.6499 20.775 19.4962 20.975 19.3318 20.9967C19.1672 21.0189 17.8377 20.781 17.7822 20.7806C17.727 20.7801 17.2246 20.8752 17.2246 20.8752C17.2246 20.8752 16.8625 20.7716 16.7834 20.7709C16.7045 20.7699 16.2844 20.9515 16.1934 20.9548C16.1025 20.9578 16.0516 20.9336 16.0438 20.8982C16.0361 20.8623 16.0165 20.8633 15.9732 20.8627C15.9299 20.8627 15.9134 20.889 15.9134 20.889Z" fill="#764845"/>
<path opacity="0.6" d="M18.419 21.3104C18.3226 21.3895 18.2051 21.4056 18.1566 21.3467C18.108 21.2874 18.1473 21.1757 18.2437 21.0965C18.34 21.0176 18.4574 21.0014 18.5056 21.0605C18.5542 21.1197 18.5152 21.2314 18.419 21.3104Z" fill="white"/>
<path opacity="0.6" d="M18.0483 21.2756C18.022 21.3272 17.9748 21.3561 17.9425 21.3398C17.9103 21.3233 17.9051 21.268 17.9314 21.2165C17.9571 21.1644 18.0046 21.136 18.0372 21.1519C18.0697 21.1682 18.0744 21.2235 18.0483 21.2756Z" fill="white"/>
<path d="M16.7887 17.9653C16.7887 17.9653 16.5232 18.8381 16.5211 19.0486C16.5193 19.2595 16.5403 19.259 16.6365 19.3626C16.733 19.4664 17.0127 19.545 17.0177 19.519C17.0227 19.4927 16.7991 19.3182 16.7892 19.034C16.7798 18.7497 16.8062 17.9067 16.7887 17.9653Z" fill="#764845"/>
<path d="M17.4185 19.2666C17.3344 19.2678 17.4214 19.4559 17.4214 19.4559C17.4953 19.4654 17.7636 19.4504 17.7841 19.4238C17.8049 19.397 17.503 19.265 17.4185 19.2666Z" fill="#764845"/>
<path d="M12.7933 15.0293C12.7933 15.0293 12.435 15.9871 12.4942 17.497C11.8825 18.5258 10.5881 18.5738 10.7433 16.3478C10.9645 13.1739 11.3131 10.6917 11.9612 9.474C13.4308 6.71287 15.4651 5.20931 18.936 4.99399C22.1145 4.79672 25.3446 7.85246 25.769 8.86769C26.6567 10.9914 26.891 12.4716 27.0922 14.2828C27.2602 15.7949 25.4074 17.9286 24.7142 18.1902C24.0743 16.2896 23.675 14.919 22.8722 13.6053C21.6505 11.6062 20.3286 10.1115 18.741 9.61959C17.8749 9.53087 14.3852 11.1897 12.7933 15.0293Z" fill="#0F3B24"/>
<path d="M32.2451 42.5516C31.9305 39.6414 31.2815 33.3882 31.1242 31.7562C30.9852 30.3138 30.4308 29.7316 29.5709 29.2085C27.8971 30.6732 26.0878 33.3595 25.8469 34.9024C25.5642 36.7116 24.6054 42.4336 24.6054 42.4336C24.6054 42.4336 24.1482 43.1857 24.0745 43.4807C24.0007 43.7756 24.5022 44.5425 24.5022 44.5425C24.5022 44.5425 24.3547 44.5573 24.1187 44.631C23.8828 44.7047 22.3047 45.0882 22.0097 45.2062C21.7148 45.3241 21.6263 45.4421 21.6558 45.6486C21.6853 45.8551 23.2191 51.3608 23.3567 51.6165C23.4942 51.8721 23.6516 51.8327 23.9073 51.8327C24.163 51.8327 26.1883 51.4788 26.4833 51.4002C26.7783 51.3216 26.8373 51.0463 26.8373 51.0463C26.8373 51.0463 27.9581 51.5378 28.6268 51.5772C29.2954 51.6166 29.6297 51.0463 29.8656 50.8693C30.1016 50.6923 30.4556 50.7119 31.0062 50.3974C31.5568 50.0828 32.6973 49.2175 32.6776 48.4507C32.6579 47.6838 32.5596 45.4617 32.2451 42.5516Z" fill="#DEDEE6"/>
<path d="M24.5022 44.5425C24.5022 44.5425 24.9004 44.572 25.0774 45.1324C25.2544 45.6928 26.8373 51.0463 26.8373 51.0463C26.8373 51.0463 26.7783 51.3216 26.4833 51.4002C26.1883 51.4788 24.163 51.8327 23.9073 51.8327C23.6516 51.8327 23.4942 51.8721 23.3567 51.6165C23.2191 51.3608 21.6853 45.8551 21.6558 45.6486C21.6263 45.4421 21.7148 45.3241 22.0097 45.2062C22.3047 45.0882 23.8828 44.7047 24.1187 44.631C24.3547 44.5573 24.5022 44.5425 24.5022 44.5425ZM24.5022 44.5425C24.5022 44.5425 24.0007 43.7756 24.0745 43.4807C24.1482 43.1857 24.6054 42.4336 24.6054 42.4336C24.6054 42.4336 25.5642 36.7116 25.8469 34.9024C26.0879 33.3595 27.8971 30.6732 29.5709 29.2085" stroke="#0F3B24" stroke-miterlimit="10"/>
<path d="M5.70959 25.7544C5.70959 25.7544 5.26702 24.6218 5.0963 24.1226C4.92557 23.6234 4.24455 23.0419 4.12479 22.8308C4.0048 22.6196 3.55657 22.1888 3.27718 21.9428C2.9979 21.6966 2.40738 21.6617 2.13719 21.7889C1.867 21.9161 2.01566 22.2487 2.15866 22.4019C2.30166 22.5551 2.57398 22.964 2.67875 23.2906C2.7834 23.6172 2.89962 24.0793 3.13323 24.334C3.36685 24.5887 3.13725 25.4074 3.13725 25.4074L5.70959 25.7544Z" fill="#764845"/>
<path d="M4.82326 21.5414C4.77748 21.6218 4.00502 22.6809 3.61838 23.0454C3.23197 23.4101 3.20448 23.4659 3.04284 23.7814C2.88143 24.0968 2.19853 25.334 2.09151 25.538C1.98473 25.7419 1.78935 26.013 1.84067 26.5161C1.89176 27.0192 2.6936 30.3417 2.76203 30.7179C2.83034 31.0942 2.83306 31.4418 2.79365 31.7341C2.75424 32.0263 1.1344 42.3419 1.08155 44.4985C1.02892 46.655 3.1095 48.6614 3.97281 48.6592C4.83635 48.6567 7.19467 47.0613 7.14004 44.1564C7.08541 41.2516 6.04111 32.4447 6.08028 32.1549C6.11946 31.8652 6.40451 31.2959 6.50917 31.1823C6.61382 31.0687 6.97734 30.249 6.98583 29.5237C6.99433 28.7985 6.81015 28.2894 6.81015 28.2894C6.81015 28.2894 7.07751 28.2936 7.22653 27.9965C7.3759 27.6992 7.35277 26.9124 7.33318 26.6915C7.31336 26.4706 7.30711 26.2217 7.2047 26.0987C7.10228 25.9757 6.83351 25.7608 6.72319 25.6964C6.61276 25.6319 6.34705 25.6158 6.34705 25.6158C6.34705 25.6158 6.24877 25.3152 6.16594 25.1948C6.08288 25.0744 5.81729 24.9095 5.67123 24.8898C5.52504 24.8701 5.31384 24.8911 5.20459 24.9658C5.12011 24.6369 4.74397 24.1894 4.29479 24.2082C4.29479 24.2082 4.45998 24.025 4.54811 23.8752C4.74137 23.5466 5.14465 23.155 5.34417 22.497C5.57188 21.7464 5.01534 21.2027 4.82326 21.5414Z" fill="#A86C5E"/>
<path d="M7.14318 28.1194C7.13102 28.1165 6.90107 28.0603 6.85871 27.8807C6.81529 27.6963 6.80243 27.4044 6.83051 27.3635C6.85824 27.3225 6.94826 27.3719 6.98743 27.3028C7.02649 27.2337 6.959 27.1278 6.959 27.1278C6.86025 27.0325 6.67076 27.2229 6.6166 27.3494C6.56221 27.4761 6.69459 27.8189 6.80975 28.2902C6.80975 28.2902 6.99475 28.2907 7.14318 28.1194Z" fill="#764845"/>
<path d="M4.27925 24.2734C4.27925 24.2734 4.2743 24.2781 4.2651 24.2869C4.25731 24.2955 4.23878 24.3088 4.22876 24.3243C4.21648 24.3403 4.20174 24.3598 4.18475 24.3821C4.16681 24.4053 4.14829 24.4354 4.12682 24.4657C4.04446 24.5933 3.93839 24.7725 3.82406 24.9501C3.76637 25.0385 3.70761 25.127 3.64932 25.2081C3.59092 25.2894 3.53405 25.3637 3.48273 25.426C3.3809 25.5509 3.30091 25.6256 3.30091 25.6256C3.28345 25.6419 3.25619 25.6411 3.23979 25.6235C3.22776 25.611 3.22516 25.5931 3.23106 25.578C3.23106 25.578 3.27118 25.4773 3.34232 25.335C3.41347 25.1923 3.51222 25.0053 3.62584 24.8243C3.7384 24.6431 3.86701 24.4675 3.98842 24.3499C4.0198 24.3207 4.04753 24.2943 4.07714 24.2735C4.10346 24.252 4.13366 24.2337 4.15808 24.22C4.18274 24.2041 4.19867 24.2029 4.21118 24.1974C4.22309 24.1931 4.22935 24.1908 4.22935 24.1908C4.25507 24.1818 4.28315 24.1951 4.29211 24.2209C4.29908 24.2397 4.2933 24.26 4.27973 24.2728L4.27925 24.2734Z" fill="#764845"/>
<path d="M5.23576 25.0514C5.23576 25.0514 5.19847 25.1403 5.13016 25.2619C5.06232 25.3841 4.96108 25.5381 4.85501 25.6886C4.80121 25.7636 4.74517 25.837 4.69101 25.9044C4.63957 25.9731 4.58978 26.0363 4.54447 26.0892C4.45528 26.1956 4.38495 26.2611 4.38495 26.2611L4.38271 26.2632C4.36537 26.2794 4.33788 26.2784 4.3216 26.2609C4.31051 26.2491 4.30744 26.2325 4.31228 26.2182C4.31228 26.2182 4.34224 26.1274 4.40324 25.9995C4.43345 25.9353 4.4712 25.8621 4.51391 25.7843C4.55851 25.7088 4.61019 25.631 4.66305 25.5538C4.68853 25.5147 4.71732 25.4777 4.74399 25.4402C4.7703 25.4024 4.79838 25.3669 4.8267 25.3333C4.88191 25.2652 4.9369 25.2042 4.98574 25.1535C5.08226 25.0508 5.15883 24.993 5.15883 24.993L5.15977 24.9924C5.1816 24.9759 5.21287 24.9803 5.2295 25.0022C5.24071 25.0167 5.24248 25.0356 5.23576 25.0514Z" fill="#764845"/>
<path d="M6.31261 25.7065C6.31261 25.7065 6.30058 25.7287 6.27733 25.7658C6.25338 25.8022 6.22152 25.8552 6.17964 25.9148C6.1387 25.9758 6.08737 26.0422 6.03263 26.1149C6.00561 26.1514 5.97776 26.1893 5.94732 26.2259C5.91712 26.2628 5.88786 26.3017 5.85612 26.3378C5.72893 26.4841 5.60681 26.6346 5.50263 26.7385C5.40069 26.8442 5.3227 26.9082 5.3227 26.9082L5.32105 26.9095C5.30253 26.9246 5.27527 26.9219 5.26029 26.9033C5.24967 26.8905 5.2479 26.8734 5.25392 26.8589C5.25392 26.8589 5.2938 26.7668 5.36848 26.6385C5.40553 26.5739 5.45119 26.5005 5.50204 26.4229C5.52835 26.3848 5.55407 26.3443 5.58274 26.305C5.61283 26.2671 5.64363 26.2284 5.67407 26.1898C5.70427 26.1506 5.73743 26.1142 5.76857 26.077C5.7996 26.0396 5.83205 26.0042 5.86332 25.9703C5.92502 25.9014 5.99098 25.8431 6.04631 25.7934C6.15698 25.6925 6.24253 25.6403 6.24253 25.6403C6.26577 25.6258 6.29668 25.6329 6.31119 25.6564C6.32099 25.6721 6.32075 25.6913 6.31261 25.7065Z" fill="#764845"/>
<path d="M10.9796 23.4778C10.9796 23.4778 10.0683 24.0171 9.88624 26.5196C9.51871 27.1501 8.65706 27.3541 8.28316 27.817C7.21184 29.1433 7.86761 30.3136 7.86761 30.3136C7.86761 30.3136 9.67823 29.7394 12.5606 30.6831C15.4429 31.6268 22.9516 39.5333 30.6363 30.1771C30.6363 30.1771 30.1392 28.7311 28.2736 28.1201C27.5945 27.8977 27.5216 20.5941 27.3431 20.186C27.1646 19.7779 20.0346 24.9573 20.0346 24.9573L17.3308 25.9776L10.9796 23.4778Z" fill="#0F3B24"/>
<path d="M17.6024 25.207C18.7611 26.0351 19.943 26.8155 21.2054 27.468C22.4922 28.0485 23.9199 28.3307 25.3197 28.3921C26.2568 28.4395 27.1951 28.3395 28.1249 28.1364L28.132 28.1589C27.2433 28.506 26.2744 28.673 25.3114 28.6435C23.8623 28.6187 22.4837 28.1165 21.1742 27.5376C20.2917 27.1752 19.4256 26.7506 18.6653 26.1666C18.2822 25.8808 17.9151 25.5722 17.5864 25.2243L17.6024 25.207Z" fill="#BCBACB"/>
<path d="M21.3066 27.5041C22.2899 27.4061 23.2602 27.3125 24.2127 27.0672C25.2898 26.7075 26.207 25.9332 26.8457 25.0153C27.1191 24.6089 27.3282 24.1738 27.512 23.7158L27.5349 23.7218C27.48 24.0483 27.3993 24.3762 27.2634 24.6842C26.7132 26.022 25.5517 26.7031 24.2375 27.1397C23.6207 27.3848 22.9697 27.5724 22.3006 27.585C21.968 27.5966 21.6338 27.5893 21.3052 27.5276L21.3066 27.5041Z" fill="#BCBACB"/>
<path d="M10.9249 23.6299C12.2159 26.0036 13.8668 28.2122 15.9212 29.9754C18.1519 31.8319 20.9791 32.5835 23.8368 32.1261C26.1531 31.8144 28.3236 30.7368 30.021 29.1297L30.0378 29.1464C29.0331 30.244 27.7807 31.1289 26.3994 31.6973C24.098 32.6301 21.4171 32.7777 19.0811 31.8922C16.304 30.7915 13.9648 28.7275 12.3313 26.2452C11.7856 25.4164 11.2903 24.5525 10.9033 23.6396L10.9249 23.6299Z" fill="#BCBACB"/>
<path d="M9.89718 26.5156C10.1394 26.9077 10.4816 27.4437 10.7155 27.8316C10.8436 28.0558 10.9634 28.2884 11.1146 28.4983C11.2635 28.7113 11.4407 28.9012 11.6233 29.0852C12.3664 29.8133 13.1353 30.4894 13.8824 31.2121L13.8686 31.2314C13.64 31.1041 13.4118 30.9722 13.198 30.8204C12.7745 30.5241 12.3683 30.1653 12.024 29.7775C11.6607 29.4 11.3846 28.9481 11.0536 28.5447C10.8126 28.2556 10.5166 27.9412 10.3354 27.6106C10.1372 27.2699 9.96514 26.9107 9.875 26.524L9.89718 26.5156Z" fill="#BCBACB"/>
<path d="M21.8492 26.0269C21.8492 26.0269 22.0856 25.8171 22.4403 25.5022C22.6157 25.344 22.8204 25.1593 23.0398 24.9616C23.148 24.8616 23.2597 24.7582 23.3733 24.6532C23.4852 24.5467 23.5987 24.4385 23.7123 24.3302C23.8233 24.2196 23.936 24.1106 24.0434 23.9999C24.149 23.888 24.2588 23.7825 24.3564 23.6732C24.4525 23.5629 24.5549 23.4636 24.6404 23.3601C24.7257 23.2568 24.8129 23.1634 24.8868 23.0724C24.9601 22.9807 25.0274 22.8966 25.0868 22.822C25.1477 22.7479 25.1928 22.6785 25.2345 22.6237C25.3174 22.5131 25.3646 22.45 25.3646 22.45L25.3675 22.4462C25.3884 22.4183 25.4283 22.4126 25.4561 22.4335C25.4808 22.452 25.4881 22.4849 25.4754 22.5117C25.4754 22.5117 25.4403 22.5843 25.3791 22.7115C25.346 22.7736 25.3128 22.8543 25.2607 22.9375C25.2095 23.0217 25.1521 23.1168 25.0891 23.2203C25.023 23.3218 24.9469 23.4286 24.8658 23.5412C24.785 23.6544 24.6924 23.7669 24.5975 23.8848C24.5021 24.0022 24.3964 24.1166 24.2919 24.236C24.1839 24.3518 24.0705 24.4657 23.9586 24.5814C23.7276 24.8045 23.4925 25.0234 23.2592 25.2131C23.2013 25.261 23.1443 25.3081 23.0885 25.3543C23.0313 25.3983 22.9751 25.4414 22.9206 25.4834C22.8124 25.5685 22.7062 25.6441 22.6084 25.7139C22.217 25.9922 21.9321 26.145 21.9321 26.145C21.8968 26.1642 21.8526 26.1511 21.8335 26.1157C21.8171 26.0859 21.8245 26.0489 21.8492 26.0269Z" fill="#BCBACB"/>
<path d="M23.7972 25.8855C23.7972 25.8855 23.8268 25.8383 23.8787 25.7556C23.9046 25.7146 23.9362 25.6652 23.9738 25.61C24.0101 25.5531 24.0517 25.4895 24.0984 25.4215C24.1926 25.2858 24.2966 25.1235 24.4175 24.9572C24.4759 24.8727 24.5363 24.7854 24.5975 24.6966C24.6595 24.6086 24.7226 24.519 24.7856 24.4295C24.8473 24.3393 24.9092 24.2491 24.97 24.1602C25.0317 24.072 25.0965 23.9875 25.1502 23.9004C25.2053 23.8143 25.263 23.7336 25.3155 23.6555C25.3662 23.5766 25.424 23.507 25.4653 23.4364C25.6387 23.1589 25.7725 22.9788 25.7725 22.9788L25.7755 22.975C25.7964 22.9468 25.8364 22.9408 25.8646 22.9618C25.8871 22.9786 25.8952 23.0075 25.887 23.0329C25.887 23.0329 25.817 23.2459 25.6848 23.5578C25.6531 23.6367 25.6094 23.7161 25.5652 23.8019C25.5198 23.887 25.4744 23.9783 25.4228 24.07C25.3224 24.2553 25.1964 24.4403 25.0755 24.6291C25.0151 24.7235 24.9447 24.8107 24.8809 24.9004C24.8161 24.9893 24.7516 25.0765 24.6851 25.1574C24.6193 25.2389 24.5542 25.3166 24.4911 25.389C24.4296 25.4627 24.3683 25.5299 24.31 25.5903C24.1967 25.7136 24.0951 25.8111 24.0224 25.8779C23.9506 25.9454 23.9069 25.98 23.9069 25.98L23.9049 25.9815C23.8733 26.0068 23.8273 26.0013 23.802 25.9697C23.7822 25.9448 23.7813 25.911 23.7972 25.8855Z" fill="#BCBACB"/>
</g>
<rect x="0.5" y="0.5" width="35" height="35" rx="17.5" stroke="#0F3B24"/>
<defs>
<clipPath id="clip0_3539_6126">
<rect width="36" height="36" rx="18" fill="white"/>
</clipPath>
</defs>
</svg>
