<svg width="28" height="28" viewBox="0 0 28 28" fill="none" xmlns="http://www.w3.org/2000/svg">
<path d="M14.0002 2.37988C7.5835 2.37988 2.3335 7.61822 2.3335 14.0699C2.3335 19.9032 6.6035 24.7449 12.1802 25.6199V17.4532H9.21683V14.0699H12.1802V11.4915C12.1802 8.56322 13.9185 6.95322 16.5902 6.95322C17.8618 6.95322 19.1918 7.17488 19.1918 7.17488V10.0565H17.7218C16.2752 10.0565 15.8202 10.9549 15.8202 11.8766V14.0699H19.0635L18.5385 17.4532H15.8202V25.6199C18.5693 25.1857 21.0727 23.783 22.8784 21.6649C24.684 19.5469 25.6731 16.8531 25.6668 14.0699C25.6668 7.61822 20.4168 2.37988 14.0002 2.37988Z" fill="black" fill-opacity="0.9"/>
</svg>
