<svg width="50" height="50" viewBox="0 0 50 50" fill="none" xmlns="http://www.w3.org/2000/svg">
<rect y="1.69653" width="48" height="48" rx="4" transform="rotate(-2.02544 0 1.69653)" fill="#228652"/>
<g clip-path="url(#clip0_3452_5944)">
<path d="M30.3188 31.3935L32.4878 29.0654M32.4878 29.0654L30.1597 26.8963M32.4878 29.0654L27.9907 29.2244M27.226 18.2126C28.3405 18.6185 29.1536 19.6683 29.1981 20.9265C29.2426 22.1848 28.5057 23.2894 27.4226 23.773M24.913 27.0818L21.9149 27.1879C20.5179 27.2373 19.8195 27.262 19.2766 27.5097C18.5527 27.84 17.9897 28.4443 17.7114 29.1896C17.5026 29.7487 17.5273 30.4472 17.5767 31.8441M25.8253 21.0458C25.8838 22.7016 24.589 24.0914 22.9332 24.15C21.2773 24.2085 19.8876 22.9137 19.829 21.2579C19.7704 19.6021 21.0653 18.2123 22.7211 18.1537C24.3769 18.0952 25.7667 19.39 25.8253 21.0458Z" stroke="#EAF6F0" stroke-width="2" stroke-linecap="round" stroke-linejoin="round"/>
</g>
<defs>
<clipPath id="clip0_3452_5944">
<rect width="18" height="18" fill="white" transform="translate(15.521 16.157) rotate(-2.02544)"/>
</clipPath>
</defs>
</svg>
