<svg width="28" height="28" viewBox="0 0 28 28" fill="none" xmlns="http://www.w3.org/2000/svg">
<path d="M18.8885 2.33301H9.11183C4.86516 2.33301 2.3335 4.86467 2.3335 9.11134V18.8763C2.3335 23.1347 4.86516 25.6663 9.11183 25.6663H18.8768C23.1235 25.6663 25.6552 23.1347 25.6552 18.888V9.11134C25.6668 4.86467 23.1352 2.33301 18.8885 2.33301ZM14.0002 18.5263C11.5035 18.5263 9.4735 16.4963 9.4735 13.9997C9.4735 11.503 11.5035 9.47301 14.0002 9.47301C16.4968 9.47301 18.5268 11.503 18.5268 13.9997C18.5268 16.4963 16.4968 18.5263 14.0002 18.5263ZM20.9068 8.02634C20.8485 8.16634 20.7668 8.29467 20.6618 8.41134C20.5452 8.51634 20.4168 8.59801 20.2768 8.65634C20.1368 8.71467 19.9852 8.74967 19.8335 8.74967C19.5185 8.74967 19.2268 8.63301 19.0052 8.41134C18.9002 8.29467 18.8185 8.16634 18.7602 8.02634C18.7018 7.88634 18.6668 7.73467 18.6668 7.58301C18.6668 7.43134 18.7018 7.27967 18.7602 7.13967C18.8185 6.98801 18.9002 6.87134 19.0052 6.75467C19.2735 6.48634 19.6818 6.35801 20.0552 6.43967C20.1368 6.45134 20.2068 6.47467 20.2768 6.50967C20.3468 6.53301 20.4168 6.56801 20.4868 6.61468C20.5452 6.64967 20.6035 6.70801 20.6618 6.75467C20.7668 6.87134 20.8485 6.98801 20.9068 7.13967C20.9652 7.27967 21.0002 7.43134 21.0002 7.58301C21.0002 7.73467 20.9652 7.88634 20.9068 8.02634Z" fill="black" fill-opacity="0.9"/>
</svg>
