<svg width="36" height="36" viewBox="0 0 36 36" fill="none" xmlns="http://www.w3.org/2000/svg">
<path d="M30.8702 29.0548L26.3852 16.5148C26.0702 15.6898 25.3652 15.1798 24.5552 15.1798C23.7452 15.1798 23.0552 15.6898 22.7102 16.5448L18.2402 29.0548C18.0302 29.6398 18.3302 30.2848 18.9152 30.4948C19.5002 30.7048 20.1452 30.4048 20.3552 29.8198L21.2852 27.2248H27.8102L28.7402 29.8198C28.9052 30.2848 29.3402 30.5698 29.8052 30.5698C29.9252 30.5698 30.0602 30.5548 30.1802 30.5098C30.7652 30.2998 31.0652 29.6548 30.8552 29.0698L30.8702 29.0548ZM22.1102 24.9598L24.5702 18.0748L27.0302 24.9598H22.1102ZM18.2852 11.7748C14.8952 17.1298 11.8352 20.3698 8.11518 22.5298C7.93518 22.6348 7.74018 22.6798 7.56018 22.6798C7.17018 22.6798 6.79518 22.4848 6.58518 22.1248C6.27018 21.5848 6.45018 20.8948 6.99018 20.5948C10.1402 18.7648 12.7202 16.1398 15.6152 11.7898H6.18018C5.56518 11.7898 5.05518 11.2798 5.05518 10.6648C5.05518 10.0498 5.56518 9.53982 6.18018 9.53982H11.8052V6.56982C11.8052 5.95482 12.3152 5.44482 12.9302 5.44482C13.5452 5.44482 14.0552 5.95482 14.0552 6.56982V9.53982H19.6802C20.2952 9.53982 20.8052 10.0498 20.8052 10.6648C20.8052 11.2798 20.2952 11.7898 19.6802 11.7898H18.2702L18.2852 11.7748ZM18.3452 22.6798C18.1502 22.6798 17.9552 22.6348 17.7752 22.5298C16.8002 21.9598 15.8552 21.3298 14.9702 20.6698C14.4752 20.2948 14.3702 19.5898 14.7452 19.0948C15.1202 18.5998 15.8252 18.4948 16.3202 18.8698C17.1302 19.4848 18.0152 20.0548 18.9152 20.5798C19.4552 20.8948 19.6352 21.5848 19.3202 22.1248C19.1102 22.4848 18.7352 22.6798 18.3452 22.6798Z" fill="#0F3B24"/>
</svg>
