<svg width="24" height="24" viewBox="0 0 24 24" fill="none" xmlns="http://www.w3.org/2000/svg">
<path d="M17.9239 8.23236C15.1359 6.67297 10.661 4.16894 3.72009 0.282578C3.25213 -0.0264698 2.71372 -0.0669699 2.24854 0.0904835L14.1572 11.9991L17.9239 8.23236Z" fill="#32BBFF"/>
<path d="M2.24837 0.0904846C2.16118 0.120016 2.07633 0.155641 1.99519 0.198672C1.48149 0.476548 1.104 1.01125 1.104 1.68752V22.3107C1.104 22.987 1.48144 23.5217 1.99519 23.7995C2.07619 23.8425 2.16099 23.8782 2.24808 23.908L14.157 11.9991L2.24837 0.0904846Z" fill="#32BBFF"/>
<path d="M14.1569 11.9991L2.24805 23.908C2.71338 24.0666 3.25178 24.0292 3.71988 23.7156C10.451 19.9464 14.8755 17.4721 17.6958 15.8994C17.7743 15.8553 17.8512 15.8122 17.9273 15.7695L14.1569 11.9991Z" fill="#32BBFF"/>
<path d="M1.104 11.9991V22.3107C1.104 22.9869 1.48144 23.5216 1.99519 23.7995C2.07619 23.8425 2.16099 23.8782 2.24808 23.9079L14.157 11.9991H1.104Z" fill="#2C9FD9"/>
<path d="M3.71984 0.282559C3.16414 -0.0843794 2.50882 -0.0739263 1.99512 0.198699L13.9762 12.1798L17.9236 8.23234C15.1356 6.67295 10.6607 4.16893 3.71984 0.282559Z" fill="#29CC5E"/>
<path d="M13.9762 11.8184L1.99512 23.7995C2.50887 24.072 3.16414 24.0878 3.71984 23.7156C10.451 19.9464 14.8755 17.472 17.6957 15.8994C17.7743 15.8553 17.8512 15.8121 17.9272 15.7694L13.9762 11.8184Z" fill="#D93F21"/>
<path d="M22.8961 11.9991C22.8961 11.4277 22.6077 10.851 22.0363 10.5312C22.0363 10.5312 20.9676 9.93495 17.6918 8.10269L13.7954 11.9991L17.6956 15.8993C20.9354 14.0803 22.0362 13.4669 22.0362 13.4669C22.6077 13.1472 22.8961 12.5705 22.8961 11.9991Z" fill="#FFD500"/>
<path d="M22.0363 13.4669C22.6077 13.1471 22.8961 12.5705 22.8961 11.9991H13.7954L17.6956 15.8993C20.9355 14.0803 22.0363 13.4669 22.0363 13.4669Z" fill="#FFAA00"/>
</svg>
