<svg width="28" height="28" viewBox="0 0 28 28" fill="none" xmlns="http://www.w3.org/2000/svg">
<g clip-path="url(#clip0_3551_6752)">
<path d="M14.9365 13.5222L21.2376 22.5349H18.6516L13.5098 15.1805V15.1801L12.755 14.1005L6.74854 5.50879H9.33448L14.1817 12.4426L14.9365 13.5222Z" fill="black" fill-opacity="0.9"/>
<path d="M24.9745 0H3.02546C1.35459 0 0 1.35459 0 3.02546V24.9745C0 26.6454 1.35459 28 3.02546 28H24.9745C26.6454 28 28 26.6454 28 24.9745V3.02546C28 1.35459 26.6454 0 24.9745 0ZM17.8593 23.7445L12.6561 16.172L6.14174 23.7445H4.45809L11.9086 15.0844L4.45809 4.24108H10.1407L15.0677 11.4118L21.2364 4.24108H22.9201L15.8155 12.4996H15.8151L23.5419 23.7445H17.8593Z" fill="black" fill-opacity="0.9"/>
</g>
<defs>
<clipPath id="clip0_3551_6752">
<rect width="28" height="28" fill="white"/>
</clipPath>
</defs>
</svg>
